<?xml version="1.0" encoding="utf-8"?>
<svg version="1.1" xmlns="http://www.w3.org/2000/svg" xmlns:xlink="http://www.w3.org/1999/xlink" x="0px" y="0px"
	 width="33px" height="33px" viewBox="0 0 33 33" enable-background="new 0 0 33 33" xml:space="preserve">
<path fill="#14191E" d="M18,7.5v-6C18,0.7,17.3,0,16.5,0h0C15.7,0,15,0.7,15,1.5v6C15,8.3,15.7,9,16.5,9h0C17.3,9,18,8.3,18,7.5z"/>
<path opacity="0.4" fill="#14191E" enable-background="new    " d="M18,31.5v-6c0-0.8-0.7-1.5-1.5-1.5h0c-0.8,0-1.5,0.7-1.5,1.5v6
	c0,0.8,0.7,1.5,1.5,1.5h0C17.3,33,18,32.3,18,31.5z"/>
<path opacity="0.25" fill="#14191E" enable-background="new    " d="M13.3,8l-3-5.2C9.9,2,9,1.8,8.3,2.2l0,0c-0.7,0.4-1,1.3-0.5,2
	l3,5.2c0.4,0.7,1.3,1,2,0.5l0,0C13.5,9.6,13.7,8.7,13.3,8z"/>
<path opacity="0.5" fill="#14191E" enable-background="new    " d="M25.3,28.7l-3-5.2c-0.4-0.7-1.3-1-2-0.5l0,0
	c-0.7,0.4-1,1.3-0.5,2l3,5.2c0.4,0.7,1.3,1,2,0.5h0C25.5,30.4,25.7,29.5,25.3,28.7z"/>
<path opacity="0.25" fill="#14191E" enable-background="new    " d="M9.5,10.7l-5.2-3c-0.7-0.4-1.6-0.2-2,0.5l0,0
	C1.8,9,2,9.9,2.8,10.3l5.2,3c0.7,0.4,1.6,0.2,2-0.5l0,0C10.4,12,10.2,11.1,9.5,10.7z"/>
<path opacity="0.6" fill="#14191E" enable-background="new    " d="M30.2,22.7l-5.2-3c-0.7-0.4-1.6-0.2-2,0.5l0,0
	c-0.4,0.7-0.2,1.6,0.5,2l5.2,3c0.7,0.4,1.6,0.2,2-0.5v0C31.2,24,31,23.1,30.2,22.7z"/>
<path opacity="0.25" fill="#14191E" enable-background="new    " d="M7.5,15h-6C0.7,15,0,15.7,0,16.5v0C0,17.3,0.7,18,1.5,18h6
	C8.3,18,9,17.3,9,16.5v0C9,15.7,8.3,15,7.5,15z"/>
<path opacity="0.7" fill="#14191E" enable-background="new    " d="M31.5,15h-6c-0.8,0-1.5,0.7-1.5,1.5v0c0,0.8,0.7,1.5,1.5,1.5h6
	c0.8,0,1.5-0.7,1.5-1.5v0C33,15.7,32.3,15,31.5,15z"/>
<path opacity="0.25" fill="#14191E" enable-background="new    " d="M8,19.7l-5.2,3c-0.7,0.4-1,1.3-0.5,2l0,0c0.4,0.7,1.3,1,2,0.5
	l5.2-3c0.7-0.4,1-1.3,0.5-2l0,0C9.6,19.5,8.7,19.3,8,19.7z"/>
<path opacity="0.8" fill="#14191E" enable-background="new    " d="M28.7,7.7l-5.2,3c-0.7,0.4-1,1.3-0.5,2l0,0c0.4,0.7,1.3,1,2,0.5
	l5.2-3c0.7-0.4,1-1.3,0.5-2v0C30.4,7.5,29.5,7.3,28.7,7.7z"/>
<path opacity="0.3" fill="#14191E" enable-background="new    " d="M10.7,23.5l-3,5.2c-0.4,0.7-0.2,1.6,0.5,2h0
	c0.7,0.4,1.6,0.2,2-0.5l3-5.2c0.4-0.7,0.2-1.6-0.5-2l0,0C12,22.6,11.1,22.8,10.7,23.5z"/>
<path opacity="0.9" fill="#14191E" enable-background="new    " d="M22.7,2.8l-3,5.2c-0.4,0.7-0.2,1.6,0.5,2l0,0
	c0.7,0.4,1.6,0.2,2-0.5l3-5.2c0.4-0.7,0.2-1.6-0.5-2l0,0C24,1.8,23.1,2,22.7,2.8z"/>
</svg>
